# xmcd CD database file
#
# Track frame offsets:
#	150
#	22575
#	33705
#	49875
#	70427
#	83493
#	96002
#	109797
#	119105
#	142057
#	149982
#	163736
#	174938
#	194488
#	213614
#	225233
#
# Disc length: 3255 seconds
#
# Revision: 0
# Processed by: cddbd v1.5.1PL2 Copyright (c) Steve Scherf et al.
# Submitted via: CDex 1.50
#
DISCID=eb0cb510
DTITLE=Various Artistes - Essential Americana - The Sound Of spit and Polish
DYEAR=2005
DGENRE=Country
TTITLE0=Laura Cantrell - Queen Of The Coast
TTITLE1=Paul Burch - C'est Le Moment
TTITLE2=Amy Rigby - Don't Ever Change
TTITLE3=Jason Ringenberg and Steve Earle - Bible and A Gun
TTITLE4=John Herald - Martha and Me
TTITLE5=Steve Young - Blackland Farmer
TTITLE6=Radio Sweethearts - Lonesome Blue
TTITLE7=Tim Carroll - If I Could, Then I Would
TTITLE8=Tom Clelland - Country Music Once Again
TTITLE9=She-Haw - Not About Love
TTITLE10=Tom Armstrong - Start Talking
TTITLE11=Amy allison - Hell To Pay
TTITLE12=Neil Cleary - When All Of Us Got Famous
TTITLE13=John Miller - Don't Forget To Tell Him
TTITLE14=Paul Burch - Peach Pickin' Time In Georgia
TTITLE15=Laura Cantrell - High On A Hilltop
EXTD=YEAR: 2005
EXTT0=
EXTT1=
EXTT2=
EXTT3=
EXTT4=
EXTT5=
EXTT6=
EXTT7=
EXTT8=
EXTT9=
EXTT10=
EXTT11=
EXTT12=
EXTT13=
EXTT14=
EXTT15=
PLAYORDER=
